<svg width="537" height="718" viewBox="0 0 537 718" fill="none" xmlns="http://www.w3.org/2000/svg">
<rect width="537" height="718" fill="white"/>
<path fill-rule="evenodd" clip-rule="evenodd" d="M92.219 85H175.781C177.866 85 179.562 86.6963 179.562 88.7814V181.219C179.562 183.304 177.866 185 175.781 185H92.219C90.134 185 88.4378 183.304 88.4378 181.219V151.233C88.4378 150.424 89.0934 149.769 89.9026 149.769C90.7118 149.769 91.3674 150.424 91.3674 151.233V181.219C91.3674 181.688 91.7495 182.07 92.219 182.07H97.3626V110.415C97.3626 108.101 99.245 106.219 101.559 106.219H138.073C138.882 106.219 139.538 106.875 139.538 107.684C139.538 108.493 138.882 109.148 138.073 109.148H129.207V182.021H155.218V110.415C155.218 109.717 154.65 109.148 153.951 109.148H144.909C144.099 109.148 143.444 108.493 143.444 107.684C143.444 106.875 144.099 106.219 144.909 106.219H153.951C156.265 106.219 158.148 108.101 158.148 110.415V182.07H175.781C176.251 182.07 176.633 181.688 176.633 181.219V88.7814C176.633 88.3117 176.251 87.9297 175.781 87.9297H92.219C91.7495 87.9297 91.3674 88.3117 91.3674 88.7814V144.397C91.3674 145.206 90.7118 145.862 89.9026 145.862C89.0934 145.862 88.4378 145.206 88.4378 144.397V88.7814C88.4378 86.6963 90.1339 85 92.219 85ZM101.559 109.148C100.86 109.148 100.292 109.717 100.292 110.415V182.021H126.278V109.148H101.559ZM171.435 141.088H163.596C162.861 141.088 162.178 140.691 161.815 140.053C161.451 139.414 161.458 138.624 161.833 137.992L165.753 131.389C166.125 130.76 166.785 130.385 167.516 130.385C168.246 130.385 168.906 130.76 169.279 131.389L173.198 137.992C173.573 138.624 173.58 139.414 173.216 140.053C172.853 140.691 172.17 141.088 171.435 141.088ZM169.89 138.159L167.516 134.158L165.141 138.159H169.89ZM161.833 148.171L165.752 154.773C166.125 155.402 166.784 155.777 167.515 155.777C168.246 155.777 168.905 155.402 169.278 154.774L173.198 148.171C173.573 147.538 173.58 146.749 173.216 146.11C172.853 145.471 172.17 145.074 171.435 145.074H163.596C162.86 145.074 162.178 145.471 161.814 146.11C161.451 146.749 161.458 147.538 161.833 148.171ZM169.89 148.004L167.516 152.004L165.141 148.004H169.89ZM139.419 100.399C139.419 101.745 138.324 102.84 136.978 102.84H118.507C117.162 102.84 116.067 101.745 116.067 100.399V94.0256C116.067 92.6799 117.162 91.5851 118.507 91.5851H136.978C138.324 91.5851 139.419 92.6799 139.419 94.0256V100.399ZM136.489 94.5148H118.997V99.9102H136.489V94.5148Z" fill="black"/>
<g clip-path="url(#clip0)">
<path fill-rule="evenodd" clip-rule="evenodd" d="M246.544 113.783C246.388 113.937 246.269 114.115 246.183 114.316C246.098 114.517 246.052 114.728 246.048 114.942L245.932 120.472C245.849 124.437 247.41 128.32 250.215 131.124L252.642 133.549C253.214 134.121 253.215 135.049 252.643 135.621C252.071 136.193 251.143 136.194 250.571 135.622L248.143 133.196C244.777 129.83 242.904 125.17 243.003 120.41L243.119 114.883C243.13 114.294 243.254 113.717 243.487 113.168C243.722 112.617 244.054 112.126 244.475 111.708C244.916 111.266 245.433 110.925 245.997 110.696C244.955 109.187 244.602 107.272 245.084 105.471L248.028 94.4873C248.609 92.318 250.318 90.6092 252.488 90.0279L254.764 89.4168C255.545 89.207 256.349 89.6701 256.559 90.4518C256.768 91.233 256.305 92.0367 255.524 92.2463L253.246 92.8576C252.084 93.1691 251.169 94.0842 250.858 95.2457L247.914 106.229C247.603 107.39 247.939 108.642 248.79 109.494L256.398 117.101C257.249 117.942 258.492 118.272 259.646 117.962L270.63 115.021C271.792 114.709 272.708 113.792 273.02 112.63L275.961 101.648C276.274 100.487 275.939 99.2369 275.088 98.3846L267.493 90.7896C266.641 89.9395 265.39 89.6043 264.227 89.9148L262.126 90.4773C261.345 90.6861 260.541 90.2225 260.332 89.441C260.123 88.6594 260.587 87.8563 261.369 87.6471L263.47 87.0846C265.272 86.6025 267.187 86.9551 268.695 87.9971C268.958 87.3512 269.367 86.7684 269.908 86.2871C270.723 85.5566 271.81 85.1404 272.966 85.1172L278.41 85.0039C278.531 85.0012 278.651 85 278.772 85C283.405 85 287.915 86.8625 291.195 90.1436L297.231 96.1809C302.436 101.385 304.62 108.788 303.07 115.986L301.812 121.83C301.341 124.025 302.007 126.283 303.594 127.87L321.672 145.949C322.244 146.521 322.244 147.448 321.672 148.02C321.386 148.306 321.011 148.449 320.636 148.449C320.261 148.449 319.886 148.306 319.6 148.02L301.522 129.942C299.229 127.648 298.267 124.386 298.948 121.213L300.206 115.369C301.545 109.149 299.658 102.75 295.159 98.2525L289.124 92.215C286.319 89.4107 282.438 87.8473 278.472 87.9328L273.026 88.0461C272.57 88.0555 272.156 88.2066 271.859 88.4721C271.503 88.7896 271.301 89.2221 271.288 89.692C271.274 90.1621 271.45 90.6039 271.783 90.9357L282.112 101.265C284.468 103.623 285.423 107.095 284.603 110.325L282.701 117.821C281.841 121.205 279.205 123.842 275.821 124.701C273.477 125.297 270.645 126.015 268.329 126.603C265.093 127.424 261.619 126.467 259.262 124.107L254.334 119.18C254.327 119.174 254.321 119.168 254.314 119.161L248.936 113.783C248.616 113.463 248.191 113.287 247.74 113.287C247.288 113.287 246.863 113.463 246.544 113.783ZM271.389 117.85L260.406 120.792C260.338 120.81 260.27 120.825 260.201 120.84L260.201 120.84L260.201 120.84L260.149 120.852L261.334 122.036C262.965 123.67 265.369 124.331 267.608 123.763C269.924 123.176 272.756 122.457 275.1 121.861C277.442 121.267 279.266 119.442 279.861 117.1L281.763 109.604C282.33 107.37 281.67 104.968 280.04 103.336L278.852 102.148L278.84 102.2C278.825 102.27 278.81 102.339 278.791 102.407L275.85 113.388C275.267 115.558 273.558 117.268 271.389 117.85ZM258.049 107.828C259.088 108.867 260.47 109.44 261.939 109.44C263.408 109.44 264.79 108.867 265.829 107.829C267.973 105.684 267.973 102.194 265.829 100.05C264.79 99.0105 263.408 98.4383 261.939 98.4383C260.47 98.4383 259.088 99.0105 258.049 100.049C255.905 102.194 255.905 105.684 258.049 107.828ZM260.121 102.121C260.607 101.636 261.252 101.368 261.939 101.368C262.626 101.368 263.271 101.636 263.757 102.121C264.759 103.124 264.759 104.754 263.757 105.757V105.757C263.271 106.243 262.626 106.51 261.939 106.51C261.252 106.51 260.607 106.243 260.121 105.757C259.118 104.754 259.118 103.123 260.121 102.121ZM287.942 143.523C285.648 141.229 282.385 140.266 279.213 140.949L273.369 142.206C267.77 143.411 261.815 141.93 257.437 138.244C256.818 137.723 255.894 137.802 255.373 138.421C254.852 139.04 254.931 139.964 255.55 140.485C260.616 144.75 267.507 146.464 273.986 145.07L279.829 143.813C282.025 143.342 284.283 144.007 285.87 145.594L324.847 184.571C325.133 184.857 325.508 185 325.883 185C326.258 185 326.633 184.857 326.918 184.571C327.491 183.999 327.491 183.071 326.918 182.499L287.942 143.523ZM342.571 166.847L326.504 150.78C325.932 150.208 325.005 150.208 324.433 150.78C323.861 151.353 323.861 152.28 324.433 152.852L340.499 168.919C340.785 169.204 341.16 169.347 341.535 169.347C341.91 169.347 342.285 169.204 342.571 168.919C343.143 168.346 343.143 167.419 342.571 166.847ZM296.118 132.025C297.746 132.025 299.276 132.659 300.427 133.81L338.018 171.401C338.59 171.973 338.59 172.9 338.018 173.473C337.446 174.045 336.518 174.045 335.946 173.473L298.355 135.882C297.758 135.284 296.963 134.955 296.119 134.955C295.274 134.955 294.479 135.284 293.882 135.882C293.284 136.479 292.955 137.274 292.955 138.119C292.955 138.963 293.284 139.758 293.882 140.355L331.472 177.946C332.044 178.518 332.044 179.446 331.472 180.018C331.186 180.304 330.811 180.447 330.437 180.447C330.062 180.447 329.687 180.304 329.401 180.018L291.81 142.427C290.659 141.276 290.025 139.746 290.025 138.119C290.025 136.491 290.659 134.961 291.81 133.81C292.961 132.659 294.491 132.025 296.118 132.025Z" fill="black"/>
</g>
<path fill-rule="evenodd" clip-rule="evenodd" d="M153.77 292.903C153.77 308.288 141.253 320.805 125.867 320.805C110.482 320.805 97.965 308.288 97.9648 292.902C97.9648 277.517 110.482 265 125.867 265C131.764 265 137.405 266.825 142.18 270.278C142.836 270.752 142.983 271.667 142.509 272.323C142.035 272.979 141.12 273.126 140.464 272.652C136.191 269.563 131.143 267.93 125.867 267.93C112.097 267.93 100.895 279.132 100.895 292.903C100.895 306.673 112.097 317.875 125.867 317.875C139.637 317.875 150.84 306.673 150.84 292.903C150.84 287.142 148.822 281.517 145.16 277.066C144.646 276.441 144.736 275.518 145.36 275.004C145.985 274.49 146.908 274.58 147.422 275.204C151.515 280.179 153.77 286.464 153.77 292.903ZM158.518 323.912C160.421 323.912 162.236 324.628 163.627 325.928C166.641 328.745 166.803 333.49 163.989 336.505L154.252 346.937C151.244 350.171 147.382 352.444 143.086 353.508L138.004 354.766C137.886 354.795 137.768 354.809 137.651 354.809C136.993 354.809 136.396 354.363 136.23 353.696C136.036 352.911 136.515 352.116 137.3 351.922L142.382 350.664C146.124 349.737 149.488 347.758 152.109 344.94L161.847 334.507C163.56 332.671 163.461 329.783 161.627 328.068C160.78 327.278 159.676 326.842 158.518 326.842C157.282 326.842 156.126 327.327 155.263 328.207L145.257 338.411C144.981 338.691 144.605 338.85 144.211 338.85L112.528 338.851C111.719 338.851 111.064 338.195 111.064 337.386C111.064 336.577 111.719 335.921 112.528 335.921H123.667C123.672 335.921 125.99 335.449 126.822 334.595C127.654 333.74 128.094 332.611 128.061 331.415C127.997 329.068 125.977 327.158 123.559 327.158H107.27C106.277 327.158 105.312 327.364 104.401 327.77L92.2377 333.195C92.05 333.279 91.8467 333.322 91.6411 333.322H85.9399V360.156H101.637C103.239 360.156 104.84 359.961 106.394 359.576L130.666 353.566C131.451 353.372 132.245 353.851 132.44 354.636C132.634 355.421 132.155 356.216 131.37 356.41L107.098 362.42C105.314 362.862 103.476 363.086 101.637 363.086H85.9397V363.535C85.9397 364.344 85.2838 365 84.4749 365H67.467C66.6581 365 66.0022 364.344 66.0022 363.535V329.096C66.0022 328.287 66.6581 327.631 67.467 327.631H71.5571C72.3661 327.631 73.0219 328.287 73.0219 329.096C73.0219 329.905 72.3661 330.561 71.5571 330.561H68.9321V362.07H83.0102V330.56H78.393C77.584 330.56 76.9282 329.905 76.9282 329.096C76.9282 328.286 77.584 327.631 78.393 327.631H84.475C85.284 327.631 85.9399 328.286 85.9399 329.096V330.392H91.3291L103.208 325.094C104.498 324.519 105.864 324.228 107.27 324.228H123.559C127.548 324.228 130.882 327.416 130.99 331.334C131.036 333.01 130.524 334.606 129.537 335.92H143.596L153.171 326.156C154.59 324.709 156.489 323.912 158.518 323.912ZM137.117 275.631L132.239 278.633C131.979 278.517 131.716 278.408 131.451 278.306L130.125 272.735C129.967 272.075 129.378 271.61 128.7 271.61H123.034C122.356 271.61 121.766 272.075 121.609 272.735L120.283 278.306C120.018 278.408 119.755 278.517 119.495 278.633L114.617 275.631C114.039 275.276 113.293 275.364 112.813 275.843L108.807 279.849C108.328 280.329 108.24 281.075 108.596 281.653L111.597 286.531C111.481 286.791 111.372 287.054 111.27 287.319L105.699 288.645C105.04 288.803 104.574 289.392 104.574 290.07V295.736C104.574 296.414 105.039 297.004 105.699 297.161L111.27 298.487C111.372 298.752 111.481 299.015 111.597 299.275L108.596 304.153C108.24 304.731 108.328 305.477 108.807 305.957L112.813 309.962C113.293 310.442 114.039 310.529 114.617 310.174L119.495 307.172C119.755 307.289 120.018 307.398 120.283 307.5L121.609 313.071C121.766 313.73 122.356 314.196 123.034 314.196H128.699C129.378 314.196 129.967 313.73 130.124 313.071L131.451 307.5C131.716 307.398 131.979 307.289 132.239 307.172L137.117 310.174C137.694 310.53 138.441 310.442 138.92 309.962L142.926 305.957C143.406 305.477 143.493 304.731 143.138 304.153L140.136 299.275C140.253 299.015 140.362 298.752 140.463 298.487L146.034 297.161C146.694 297.004 147.16 296.414 147.16 295.736V290.07C147.16 289.392 146.694 288.803 146.034 288.645L140.463 287.319C140.362 287.054 140.252 286.791 140.136 286.531L143.138 281.653C143.493 281.075 143.406 280.329 142.926 279.849L138.92 275.843C138.441 275.364 137.695 275.276 137.117 275.631ZM137.167 287.112C137.482 287.726 137.747 288.363 137.954 289.008C138.111 289.495 138.511 289.865 139.009 289.984L144.231 291.227V294.578L139.009 295.821C138.511 295.94 138.111 296.31 137.954 296.797C137.747 297.442 137.482 298.079 137.167 298.693C136.933 299.148 136.954 299.693 137.223 300.129L140.037 304.703L137.667 307.072L133.094 304.258C132.657 303.989 132.112 303.969 131.657 304.203C131.045 304.517 130.407 304.782 129.761 304.99C129.274 305.147 128.904 305.547 128.786 306.045L127.542 311.266H124.191L122.948 306.045C122.829 305.547 122.459 305.147 121.972 304.99C121.327 304.782 120.689 304.517 120.077 304.203C119.621 303.968 119.076 303.989 118.64 304.258L114.067 307.072L111.697 304.703L114.511 300.129C114.78 299.693 114.801 299.148 114.567 298.693C114.252 298.079 113.987 297.442 113.779 296.797C113.623 296.31 113.222 295.94 112.724 295.821L107.503 294.578V291.227L112.724 289.984C113.222 289.865 113.622 289.495 113.779 289.008C113.987 288.363 114.252 287.726 114.567 287.112C114.801 286.657 114.78 286.112 114.511 285.676L111.697 281.103L114.067 278.733L118.64 281.547C119.076 281.815 119.621 281.837 120.077 281.603C120.691 281.288 121.328 281.023 121.972 280.815C122.46 280.658 122.83 280.258 122.948 279.76L124.192 274.539H127.543L128.786 279.76C128.905 280.258 129.275 280.659 129.762 280.815C130.406 281.023 131.044 281.288 131.658 281.603C132.113 281.837 132.658 281.815 133.094 281.547L137.667 278.733L140.037 281.103L137.223 285.676C136.954 286.112 136.933 286.657 137.167 287.112ZM118.737 292.903C118.737 288.971 121.935 285.772 125.867 285.772C129.799 285.772 132.997 288.971 132.997 292.903C132.997 296.834 129.799 300.033 125.867 300.033C121.935 300.033 118.737 296.834 118.737 292.903ZM121.667 292.903C121.667 295.219 123.551 297.103 125.867 297.103C128.183 297.103 130.067 295.219 130.067 292.903C130.067 290.586 128.183 288.702 125.867 288.702C123.551 288.702 121.667 290.587 121.667 292.903Z" fill="black"/>
<path fill-rule="evenodd" clip-rule="evenodd" d="M338.539 273.448H349.757C352.718 273.448 355.128 275.857 355.128 278.819V359.629C355.128 362.591 352.718 365 349.757 365H286.243C283.282 365 280.872 362.591 280.872 359.629V299.639C280.872 298.83 281.528 298.174 282.337 298.174C283.146 298.174 283.802 298.83 283.802 299.639V359.629C283.802 360.975 284.897 362.07 286.243 362.07H349.756C351.103 362.07 352.198 360.975 352.198 359.629V278.819C352.198 277.473 351.103 276.378 349.756 276.378H338.626V279.307H344.874C347.297 279.307 349.268 281.279 349.268 283.702V354.746C349.268 357.169 347.297 359.141 344.874 359.141H337.832C337.023 359.141 336.367 358.485 336.367 357.676C336.367 356.867 337.023 356.211 337.832 356.211H344.874C345.681 356.211 346.339 355.554 346.339 354.746V283.702C346.339 282.894 345.681 282.237 344.874 282.237H338.626V285.802C338.626 287.579 337.181 289.024 335.404 289.024H300.596C298.819 289.024 297.373 287.579 297.373 285.802V282.237H291.126C290.318 282.237 289.661 282.894 289.661 283.702V354.746C289.661 355.554 290.318 356.211 291.126 356.211H330.997C331.806 356.211 332.461 356.867 332.461 357.676C332.461 358.485 331.806 359.141 330.997 359.141H291.126C288.703 359.141 286.732 357.169 286.732 354.746V283.702C286.732 281.279 288.703 279.307 291.126 279.307H297.373V276.378H286.243C284.897 276.378 283.802 277.473 283.802 278.819V292.803C283.802 293.612 283.146 294.268 282.337 294.268C281.528 294.268 280.872 293.612 280.872 292.803V278.819C280.872 275.857 283.282 273.448 286.243 273.448H297.461C297.793 272.023 299.071 270.957 300.596 270.957H307.746C307.746 267.196 310.499 265 313.38 265H322.62C325.527 265 328.254 267.225 328.254 270.957H335.404C336.929 270.957 338.207 272.023 338.539 273.448ZM335.404 286.095C335.565 286.095 335.697 285.963 335.697 285.802V274.18C335.697 274.018 335.565 273.887 335.404 273.887H326.789C325.98 273.887 325.324 273.231 325.324 272.422V270.634C325.324 269.143 324.111 267.93 322.62 267.93H313.38C311.889 267.93 310.676 269.143 310.676 270.634V272.422C310.676 273.231 310.02 273.887 309.211 273.887H300.596C300.435 273.887 300.303 274.018 300.303 274.18V285.802C300.303 285.963 300.435 286.095 300.596 286.095H335.404ZM296.516 306.926H339.484C340.293 306.926 340.949 306.27 340.949 305.461C340.949 304.652 340.293 303.996 339.484 303.996H296.516C295.707 303.996 295.051 304.652 295.051 305.461C295.051 306.27 295.707 306.926 296.516 306.926ZM296.516 317.472H339.484C340.293 317.472 340.949 316.817 340.949 316.008C340.949 315.199 340.293 314.543 339.484 314.543H296.516C295.707 314.543 295.051 315.199 295.051 316.008C295.051 316.817 295.707 317.472 296.516 317.472ZM339.484 328.019H296.516C295.707 328.019 295.051 327.363 295.051 326.554C295.051 325.746 295.707 325.09 296.516 325.09H339.484C340.293 325.09 340.949 325.746 340.949 326.554C340.949 327.363 340.293 328.019 339.484 328.019ZM296.516 338.566H339.484C340.293 338.566 340.949 337.91 340.949 337.101C340.949 336.292 340.293 335.637 339.484 335.637H296.516C295.707 335.637 295.051 336.292 295.051 337.101C295.051 337.91 295.707 338.566 296.516 338.566Z" fill="black"/>
<path fill-rule="evenodd" clip-rule="evenodd" d="M262.094 480H169.906C167.749 480 166 481.749 166 483.906C166 486.064 167.749 487.812 169.906 487.812H262.094C264.251 487.812 266 486.064 266 483.906C266 481.749 264.251 480 262.094 480ZM262.094 511.25H169.906C167.749 511.25 166 512.999 166 515.156C166 517.314 167.749 519.062 169.906 519.062H262.094C264.251 519.062 266 517.314 266 515.156C266 512.999 264.251 511.25 262.094 511.25ZM169.906 542.5H262.094C264.251 542.5 266 544.249 266 546.406C266 548.564 264.251 550.312 262.094 550.312H169.906C167.749 550.312 166 548.564 166 546.406C166 544.249 167.749 542.5 169.906 542.5Z" fill="black"/>
<defs>
<clipPath id="clip0">
<rect width="100" height="100" fill="white" transform="translate(243 85)"/>
</clipPath>
</defs>
</svg>
