<svg width="62" height="62" viewBox="0 0 62 62" fill="none" xmlns="http://www.w3.org/2000/svg">
<path fill-rule="evenodd" clip-rule="evenodd" d="M5.09578 0H56.9043C58.1971 0 59.2487 1.0517 59.2487 2.3445V59.6555C59.2487 60.9483 58.1971 62 56.9043 62H5.09578C3.8031 62 2.7514 60.9483 2.7514 59.6555V41.0647C2.7514 40.5631 3.15792 40.1565 3.65961 40.1565C4.1613 40.1565 4.56781 40.5631 4.56781 41.0647V59.6555C4.56781 59.9467 4.80467 60.1836 5.09578 60.1836H8.28478V15.7574C8.28478 14.3228 9.45188 13.1556 10.8866 13.1556H33.5251C34.0268 13.1556 34.4333 13.5623 34.4333 14.0638C34.4333 14.5654 34.0268 14.972 33.5251 14.972H28.0286V60.1533H44.1552V15.7574C44.1552 15.3244 43.8029 14.972 43.3699 14.972H37.7634C37.2617 14.972 36.8552 14.5654 36.8552 14.0638C36.8552 13.5623 37.2617 13.1556 37.7634 13.1556H43.3699C44.8044 13.1556 45.9716 14.3228 45.9716 15.7574V60.1836H56.9043C57.1954 60.1836 57.4323 59.9467 57.4323 59.6555V2.3445C57.4323 2.05327 57.1954 1.81641 56.9043 1.81641H5.09578C4.80467 1.81641 4.56781 2.05327 4.56781 2.3445V36.8264C4.56781 37.328 4.1613 37.7346 3.65961 37.7346C3.15792 37.7346 2.7514 37.328 2.7514 36.8264V2.3445C2.7514 1.0517 3.80298 0 5.09578 0ZM10.8865 14.972C10.4535 14.972 10.1011 15.3244 10.1011 15.7574V60.1533H26.2122V14.972H10.8865ZM54.2096 34.7747H49.3495C48.8937 34.7747 48.4705 34.5287 48.245 34.1326C48.0195 33.7365 48.0239 33.2469 48.2566 32.8549L50.6866 28.761C50.9178 28.3713 51.3265 28.1387 51.7796 28.1387C52.2327 28.1387 52.6414 28.3714 52.8727 28.7611L55.3026 32.8549C55.5353 33.2469 55.5397 33.7365 55.3142 34.1326C55.0887 34.5287 54.6655 34.7747 54.2096 34.7747ZM53.2517 32.9583L51.7796 30.4781L50.3075 32.9583H53.2517ZM48.2565 39.1657L50.6864 43.2595C50.9177 43.6492 51.3264 43.8819 51.7795 43.8819C52.2326 43.8819 52.6413 43.6493 52.8725 43.2596L55.3025 39.1657C55.5352 38.7737 55.5396 38.2841 55.3141 37.8881C55.0886 37.492 54.6654 37.2459 54.2095 37.2459H49.3494C48.8935 37.2459 48.4703 37.492 48.2448 37.8881C48.0193 38.2841 48.0238 38.7737 48.2565 39.1657ZM53.2518 39.0623L51.7796 41.5425L50.3075 39.0623H53.2518ZM34.3596 9.54763C34.3596 10.382 33.6808 11.0607 32.8465 11.0607H21.3945C20.5602 11.0607 19.8815 10.382 19.8815 9.54763V5.59586C19.8815 4.76152 20.5602 4.08279 21.3945 4.08279H32.8465C33.6808 4.08279 34.3596 4.76152 34.3596 5.59586V9.54763ZM32.5433 5.8992H21.6979V9.24429H32.5433V5.8992Z" fill="#033C87"/>
</svg>
