<svg width="62" height="62" viewBox="0 0 62 62" fill="none" xmlns="http://www.w3.org/2000/svg">
<path fill-rule="evenodd" clip-rule="evenodd" d="M43.7345 5.23779H50.6891C52.5253 5.23779 54.0192 6.7316 54.0192 8.56787V58.6699C54.0192 60.5062 52.5254 62 50.6891 62H11.3109C9.47465 62 7.98083 60.5062 7.98083 58.6699V21.4761C7.98083 20.9745 8.38747 20.5679 8.88904 20.5679C9.39061 20.5679 9.79724 20.9745 9.79724 21.4761V58.6699C9.79724 59.5046 10.4762 60.1836 11.3109 60.1836H50.689C51.5237 60.1836 52.2027 59.5046 52.2027 58.6699V8.56787C52.2027 7.73317 51.5237 7.0542 50.689 7.0542H43.7884V8.8706H47.6617C49.1641 8.8706 50.3863 10.0928 50.3863 11.5952V55.6426C50.3863 57.145 49.1641 58.3672 47.6617 58.3672H43.296C42.7944 58.3672 42.3878 57.9606 42.3878 57.459C42.3878 56.9574 42.7944 56.5508 43.296 56.5508H47.6617C48.1625 56.5508 48.5699 56.1433 48.5699 55.6426V11.5952C48.5699 11.0945 48.1625 10.687 47.6617 10.687H43.7884V12.8971C43.7884 13.9988 42.892 14.8951 41.7903 14.8951H20.2096C19.1079 14.8951 18.2116 13.9988 18.2116 12.8971V10.687H14.3383C13.8374 10.687 13.4301 11.0945 13.4301 11.5952V55.6426C13.4301 56.1433 13.8374 56.5508 14.3383 56.5508H39.0578C39.5594 56.5508 39.966 56.9574 39.966 57.459C39.966 57.9606 39.5594 58.3672 39.0578 58.3672H14.3383C12.8358 58.3672 11.6136 57.145 11.6136 55.6426V11.5952C11.6136 10.0928 12.8358 8.8706 14.3383 8.8706H18.2116V7.0542H11.3109C10.4762 7.0542 9.79724 7.73317 9.79724 8.56787V17.2378C9.79724 17.7394 9.39061 18.146 8.88904 18.146C8.38747 18.146 7.98083 17.7394 7.98083 17.2378V8.56787C7.98083 6.7316 9.47465 5.23779 11.3109 5.23779H18.2656C18.4718 4.35417 19.2642 3.69336 20.2097 3.69336H24.6426C24.6426 1.36121 26.3495 0 28.1358 0H33.8643C35.6666 0 37.3575 1.3795 37.3575 3.69336H41.7903C42.7358 3.69336 43.5283 4.35417 43.7345 5.23779ZM41.7903 13.0787C41.8905 13.0787 41.972 12.9972 41.972 12.8971V5.69141C41.972 5.59126 41.8905 5.50977 41.7903 5.50977H36.4492C35.9477 5.50977 35.541 5.10313 35.541 4.60156V3.49319C35.541 2.56864 34.7888 1.81641 33.8643 1.81641H28.1358C27.2112 1.81641 26.459 2.56864 26.459 3.49319V4.60156C26.459 5.10313 26.0524 5.50977 25.5508 5.50977H20.2097C20.1096 5.50977 20.0281 5.59126 20.0281 5.69141V12.8971C20.0281 12.9972 20.1096 13.0787 20.2097 13.0787H41.7903ZM17.6797 25.9939H44.3203C44.8219 25.9939 45.2285 25.5872 45.2285 25.0857C45.2285 24.5841 44.8219 24.1775 44.3203 24.1775H17.6797C17.1781 24.1775 16.7715 24.5841 16.7715 25.0857C16.7715 25.5872 17.1781 25.9939 17.6797 25.9939ZM17.6797 32.5329H44.3203C44.8219 32.5329 45.2285 32.1263 45.2285 31.6247C45.2285 31.1231 44.8219 30.7165 44.3203 30.7165H17.6797C17.1781 30.7165 16.7715 31.1231 16.7715 31.6247C16.7715 32.1263 17.1781 32.5329 17.6797 32.5329ZM44.3203 39.072H17.6797C17.1781 39.072 16.7715 38.6654 16.7715 38.1638C16.7715 37.6622 17.1781 37.2556 17.6797 37.2556H44.3203C44.8219 37.2556 45.2285 37.6622 45.2285 38.1638C45.2285 38.6654 44.8219 39.072 44.3203 39.072ZM17.6797 45.611H44.3203C44.8219 45.611 45.2285 45.2044 45.2285 44.7028C45.2285 44.2013 44.8219 43.7946 44.3203 43.7946H17.6797C17.1781 43.7946 16.7715 44.2013 16.7715 44.7028C16.7715 45.2044 17.1781 45.611 17.6797 45.611Z" fill="#033C87"/>
</svg>
