<svg width="62" height="62" viewBox="0 0 62 62" fill="none" xmlns="http://www.w3.org/2000/svg">
<g clip-path="url(#clip0)">
<path fill-rule="evenodd" clip-rule="evenodd" d="M2.19717 17.8452C2.10078 17.941 2.02654 18.0512 1.97351 18.1757C1.92047 18.3004 1.89213 18.4312 1.88947 18.564L1.81802 21.9924C1.76656 24.451 2.73422 26.8582 4.473 28.5969L5.97795 30.1006C6.33276 30.4551 6.333 31.0301 5.97844 31.385C5.624 31.7399 5.04892 31.74 4.69412 31.3856L3.18892 29.8816C1.10187 27.7945 -0.0596588 24.9052 0.00209906 21.9544L0.0735444 18.5276C0.0805678 18.1625 0.157462 17.8043 0.302048 17.4644C0.447603 17.1227 0.653583 16.8182 0.914419 16.5592C1.18797 16.2852 1.50863 16.0736 1.85822 15.9315C1.21183 14.996 0.993372 13.8088 1.29223 12.6918L3.11724 5.88213C3.47749 4.53714 4.53694 3.47769 5.88229 3.11732L7.29376 2.73841C7.77789 2.60836 8.27631 2.89547 8.40637 3.38009C8.53642 3.86446 8.24919 4.36277 7.76469 4.4927L6.35274 4.87172C5.63187 5.06487 5.06467 5.63219 4.87176 6.35234L3.04676 13.1617C2.85398 13.8819 3.06202 14.6579 3.58962 15.1864L8.30647 19.9025C8.83431 20.424 9.60508 20.6287 10.3206 20.4365L17.1307 18.6127C17.8507 18.4194 18.4188 17.8513 18.6125 17.1304L20.4359 10.3219C20.6296 9.60201 20.422 8.82689 19.8943 8.29843L15.1854 3.58958C14.6575 3.06246 13.8817 2.85466 13.161 3.0472L11.8581 3.39595C11.3738 3.5254 10.8757 3.23793 10.746 2.75343C10.6163 2.26881 10.904 1.77087 11.3885 1.64118L12.6915 1.29243C13.8087 0.993574 14.9958 1.21215 15.9309 1.85818C16.0936 1.45773 16.3478 1.09638 16.6826 0.798008C17.1885 0.345117 17.8623 0.0870664 18.5788 0.0726563L21.9545 0.00242187C22.0289 0.000726562 22.1039 0 22.1784 0C25.0509 0 27.847 1.15475 29.8811 3.189L33.6231 6.93213C36.8506 10.1584 38.2041 14.7489 37.2435 19.2113L36.4637 22.8344C36.1711 24.1954 36.584 25.5956 37.5682 26.5796L48.7766 37.7882C49.1313 38.1428 49.1313 38.7178 48.7766 39.0726C48.5993 39.2499 48.3668 39.3385 48.1344 39.3385C47.9021 39.3385 47.6696 39.2499 47.4923 39.0726L36.2838 27.864C34.862 26.442 34.2653 24.419 34.688 22.4524L35.4678 18.829C36.298 14.9723 35.1282 11.0049 32.3387 8.21657L28.5967 4.47332C26.858 2.73466 24.4513 1.7653 21.9924 1.81834L18.6163 1.88858C18.3334 1.89439 18.0767 1.98812 17.8929 2.15268C17.6721 2.34958 17.5466 2.61768 17.5384 2.90903C17.5301 3.20051 17.6392 3.47442 17.8453 3.68016L24.2492 10.0841C25.7102 11.5465 26.302 13.6989 25.7939 15.7015L24.6144 20.3492C24.0815 22.4474 22.4471 24.0819 20.349 24.6146C18.896 24.9839 17.14 25.4296 15.7037 25.7941C13.6978 26.3028 11.5439 25.7095 10.0824 24.2466L7.02699 21.1916C7.02299 21.1877 7.01876 21.184 7.01476 21.18L3.6802 17.8455C3.48173 17.6467 3.21859 17.5378 2.93862 17.5378C2.65841 17.5378 2.39515 17.6469 2.19717 17.8452ZM17.6014 20.367L10.7916 22.1909C10.7494 22.2022 10.7071 22.2115 10.6646 22.2208L10.6323 22.228L11.3669 22.9623C12.3785 23.9751 13.8688 24.3855 15.257 24.0332C16.6929 23.669 18.4487 23.2232 19.9017 22.854C21.354 22.4853 22.4851 21.3542 22.8538 19.9021L24.0333 15.2545C24.3848 13.8691 23.9753 12.3799 22.9645 11.3682L22.228 10.6317L22.2208 10.6642C22.2114 10.7071 22.202 10.75 22.1905 10.7926L20.367 17.6009C20.0056 18.9462 18.9459 20.0059 17.6014 20.367ZM9.33057 14.1536C9.97467 14.7978 10.8312 15.1526 11.7422 15.1526C12.6531 15.1526 13.5095 14.7978 14.1537 14.1537C15.4835 12.8239 15.4835 10.6604 14.1537 9.33076C13.5095 8.68654 12.6531 8.33173 11.7422 8.33173C10.8312 8.33173 9.97479 8.68654 9.33057 9.33064C8.00084 10.6605 8.00084 12.8239 9.33057 14.1536ZM10.615 10.6151C10.9161 10.314 11.3164 10.1483 11.7422 10.1483C12.1679 10.1483 12.5681 10.314 12.8693 10.6152C13.4908 11.2367 13.4908 12.2478 12.8693 12.8692V12.8694C12.5681 13.1704 12.1679 13.3362 11.7422 13.3362C11.3164 13.3362 10.9162 13.1704 10.615 12.8692C9.99344 12.2478 9.99344 11.2365 10.615 10.6151ZM27.864 36.2842C26.442 34.862 24.4187 34.265 22.452 34.6881L18.8289 35.468C15.3576 36.2147 11.665 35.2965 8.95105 33.0115C8.56731 32.6883 7.99429 32.7373 7.67133 33.1213C7.34826 33.5049 7.39742 34.0778 7.78117 34.4009C10.9217 37.0451 15.1945 38.108 19.2111 37.2437L22.8341 36.4639C24.1953 36.1719 25.5955 36.5842 26.5795 37.5685L50.7451 61.734C50.9224 61.9112 51.1549 61.9999 51.3873 61.9999C51.6196 61.9999 51.8521 61.9112 52.0294 61.734C52.3841 61.3791 52.3841 60.8042 52.0294 60.4495L27.864 36.2842ZM61.7339 50.7451L51.7727 40.7838C51.4181 40.4292 50.843 40.4292 50.4884 40.7838C50.1337 41.1386 50.1337 41.7135 50.4884 42.0682L60.4496 52.0295C60.6269 52.2068 60.8594 52.2954 61.0918 52.2954C61.3241 52.2954 61.5566 52.2068 61.7339 52.0295C62.0886 51.6748 62.0886 51.0999 61.7339 50.7451ZM32.9334 29.1556C33.9424 29.1556 34.8912 29.5486 35.6047 30.2623L58.9111 53.5686C59.2658 53.9233 59.2658 54.4982 58.9111 54.853C58.5564 55.2076 57.9814 55.2076 57.6267 54.853L34.3204 31.5467C33.9499 31.1763 33.4573 30.9721 32.9335 30.9721C32.4096 30.9721 31.9171 31.1762 31.5466 31.5466C31.1762 31.917 30.9721 32.4097 30.9721 32.9335C30.9721 33.4574 31.1762 33.9498 31.5466 34.3203L54.8528 57.6267C55.2075 57.9814 55.2075 58.5563 54.8528 58.9111C54.6755 59.0884 54.443 59.1771 54.2106 59.1771C53.9782 59.1771 53.7457 59.0884 53.5685 58.9111L30.2622 35.6048C29.5487 34.8912 29.1557 33.9426 29.1557 32.9335C29.1557 31.9244 29.5487 30.9758 30.2622 30.2622C30.9756 29.5486 31.9243 29.1556 32.9334 29.1556Z" fill="#033C87"/>
</g>
<defs>
<clipPath id="clip0">
<rect width="62" height="62" fill="white"/>
</clipPath>
</defs>
</svg>
