<svg width="62" height="62" viewBox="0 0 62 62" fill="none" xmlns="http://www.w3.org/2000/svg">
<path fill-rule="evenodd" clip-rule="evenodd" d="M54.4171 17.2996C54.4171 26.8384 46.6566 34.5989 37.1176 34.5989C27.5787 34.5989 19.8183 26.8384 19.8182 17.2995C19.8182 7.76054 27.5787 0 37.1176 0C40.7735 0 44.2709 1.1315 47.2319 3.27207C47.6384 3.56597 47.7297 4.13378 47.4358 4.54017C47.1419 4.9468 46.5742 5.03798 46.1677 4.74421C43.5183 2.82875 40.3889 1.81641 37.1176 1.81641C28.5803 1.81641 21.6347 8.76198 21.6346 17.2997C21.6346 25.837 28.5803 32.7826 37.1176 32.7826C45.655 32.7826 52.6007 25.837 52.6007 17.2997C52.6007 13.7278 51.3499 10.2407 49.079 7.48081C48.7603 7.09343 48.816 6.52114 49.2033 6.20242C49.5907 5.88358 50.1631 5.93953 50.4817 6.32654C53.0194 9.41068 54.4171 13.3076 54.4171 17.2996ZM57.361 36.5255C58.5412 36.5255 59.6663 36.9693 60.5289 37.7751C62.3973 39.5219 62.498 42.4638 60.753 44.3334L54.7164 50.801C52.8514 52.8061 50.4571 54.2152 47.7935 54.875L44.6426 55.6548C44.5693 55.673 44.4959 55.6817 44.4236 55.6817C44.0159 55.6817 43.6452 55.4051 43.5428 54.9915C43.4223 54.5047 43.7193 54.0122 44.2063 53.8917L47.3571 53.1118C49.6772 52.5371 51.7625 51.31 53.3876 49.5628L59.4252 43.0941C60.4871 41.9562 60.4258 40.1655 59.2885 39.1023C58.7638 38.6121 58.0791 38.342 57.3609 38.342C56.5948 38.342 55.8781 38.6426 55.3429 39.1886L49.1393 45.5145C48.9684 45.6887 48.7348 45.7869 48.4908 45.7869L28.8476 45.7874C28.346 45.7874 27.9394 45.3809 27.9394 44.8792C27.9394 44.3775 28.346 43.971 28.8476 43.971H35.7533C35.7565 43.971 37.1937 43.6786 37.7096 43.1486C38.2253 42.6187 38.4981 41.9187 38.478 41.1773C38.4378 39.7223 37.1855 38.5382 35.6865 38.5382H25.5872C24.9718 38.5382 24.3735 38.6658 23.8086 38.9174L16.2674 42.2811C16.151 42.3329 16.025 42.3598 15.8974 42.3598H12.3627V58.9969H22.095C23.0884 58.9969 24.0807 58.8759 25.0444 58.6371L40.0927 54.9111C40.5796 54.7906 41.0721 55.0875 41.1926 55.5744C41.3131 56.0613 41.0162 56.5537 40.5292 56.6743L25.4809 60.4004C24.3746 60.6744 23.2354 60.8133 22.0949 60.8133H12.3626V61.0918C12.3626 61.5935 11.956 62 11.4544 62H0.909546C0.407976 62 0.00134277 61.5935 0.00134277 61.0918V39.7393C0.00134277 39.2376 0.407976 38.8311 0.909546 38.8311H3.44537C3.94694 38.8311 4.35357 39.2376 4.35357 39.7393C4.35357 40.241 3.94694 40.6475 3.44537 40.6475H1.81787V60.1836H10.5463V40.6474H7.68365C7.18208 40.6474 6.77545 40.2409 6.77545 39.7392C6.77545 39.2375 7.18208 38.831 7.68365 38.831H11.4545C11.9561 38.831 12.3627 39.2375 12.3627 39.7392V40.5433H15.7041L23.0691 37.2581C23.8684 36.902 24.7155 36.7216 25.5872 36.7216H35.6865C38.1598 36.7216 40.2266 38.6979 40.2937 41.1273C40.3221 42.1659 40.005 43.1559 39.3927 43.9704H48.1096L54.0461 37.9168C54.9256 37.0196 56.1029 36.5255 57.361 36.5255ZM44.0926 6.5915L41.0681 8.45271C40.9067 8.38042 40.7437 8.31273 40.5795 8.24964L39.7572 4.7958C39.6598 4.38675 39.2942 4.09794 38.8737 4.09794H35.3612C34.9407 4.09794 34.5751 4.38675 34.4777 4.7958L33.6554 8.24964C33.4912 8.31273 33.3282 8.38042 33.1668 8.45271L30.1423 6.5915C29.7843 6.37111 29.3216 6.42548 29.0242 6.72277L26.5405 9.20652C26.2431 9.50393 26.1889 9.9665 26.4093 10.3247L28.2703 13.349C28.1981 13.5104 28.1304 13.6734 28.0674 13.8378L24.6136 14.6601C24.2045 14.7576 23.9157 15.123 23.9157 15.5436V19.056C23.9157 19.4766 24.2044 19.8422 24.6136 19.9395L28.0674 20.7619C28.1304 20.926 28.1982 21.0891 28.2703 21.2505L26.4093 24.2749C26.1889 24.6331 26.2432 25.0957 26.5405 25.3931L29.0242 27.8768C29.3216 28.174 29.7843 28.2282 30.1423 28.008L33.1667 26.1468C33.3279 26.2191 33.4909 26.2868 33.6553 26.3499L34.4776 29.8037C34.575 30.2128 34.9406 30.5016 35.3611 30.5016H38.8736C39.2941 30.5016 39.6597 30.2128 39.7571 29.8037L40.5794 26.3499C40.7437 26.2868 40.9068 26.2191 41.068 26.1468L44.0923 28.008C44.4505 28.2285 44.9131 28.174 45.2105 27.8768L47.6943 25.3931C47.9917 25.0957 48.0459 24.6331 47.8255 24.2749L45.9643 21.2505C46.0366 21.0891 46.1043 20.926 46.1673 20.7619L49.6211 19.9395C50.0303 19.8422 50.319 19.4766 50.319 19.056V15.5436C50.319 15.123 50.0303 14.7576 49.6211 14.6601L46.1673 13.8378C46.1042 13.6734 46.0365 13.5104 45.9643 13.349L47.8254 10.3247C48.0458 9.9665 47.9916 9.50393 47.6942 9.20652L45.2104 6.72277C44.9134 6.42548 44.4507 6.37123 44.0926 6.5915ZM44.1236 13.7098C44.3188 14.0899 44.483 14.4851 44.6117 14.885C44.7091 15.1871 44.9571 15.4166 45.2659 15.4901L48.5029 16.2608V18.3386L45.2659 19.1092C44.957 19.1827 44.709 19.4122 44.6117 19.7144C44.4831 20.1139 44.3189 20.5093 44.1236 20.8895C43.9785 21.172 43.9916 21.5099 44.158 21.7803L45.9028 24.6157L44.4336 26.0848L41.5982 24.34C41.3275 24.1735 40.9897 24.1605 40.7073 24.3057C40.3277 24.5007 39.9323 24.665 39.5321 24.7938C39.2299 24.8912 39.0006 25.1392 38.9271 25.4479L38.1563 28.6848H36.0785L35.3077 25.4479C35.2342 25.1391 35.0049 24.8911 34.7027 24.7938C34.3025 24.665 33.9071 24.5007 33.5275 24.3057C33.2448 24.1601 32.9069 24.1735 32.6366 24.34L29.8012 26.0848L28.3321 24.6157L30.0769 21.7803C30.2435 21.5098 30.2564 21.172 30.1113 20.8895C29.916 20.5093 29.7518 20.1139 29.6232 19.7144C29.526 19.4122 29.2778 19.1827 28.9691 19.1092L25.732 18.3386V16.2608L28.9691 15.4901C29.2778 15.4166 29.5258 15.1871 29.6232 14.885C29.7519 14.4851 29.9161 14.0899 30.1113 13.7098C30.2564 13.4272 30.2433 13.0894 30.0768 12.819L28.3323 9.98358L29.8015 8.51435L32.6369 10.2592C32.9074 10.4254 33.245 10.4388 33.5276 10.2936C33.9081 10.0984 34.3035 9.93405 34.7029 9.80545C35.005 9.70821 35.2345 9.46009 35.308 9.15142L36.0787 5.91434H38.1566L38.9273 9.15142C39.0008 9.46021 39.2303 9.70833 39.5324 9.80545C39.9318 9.93405 40.3272 10.0984 40.7076 10.2936C40.9903 10.4388 41.328 10.4254 41.5984 10.2592L44.4338 8.51435L45.9031 9.98358L44.1582 12.8189C43.9916 13.0894 43.9785 13.4272 44.1236 13.7098ZM32.6968 17.2997C32.6968 14.8621 34.68 12.8789 37.1175 12.8789C39.5551 12.8789 41.5382 14.8621 41.5381 17.2997C41.5381 19.7372 39.5551 21.7203 37.1175 21.7203C34.6798 21.7203 32.6968 19.7372 32.6968 17.2997ZM34.5132 17.2997C34.5132 18.7357 35.6815 19.9039 37.1175 19.9039C38.5535 19.9039 39.7218 18.7357 39.7217 17.2997C39.7217 15.8635 38.5535 14.6953 37.1175 14.6953C35.6814 14.6953 34.5132 15.8636 34.5132 17.2997Z" fill="#033C87"/>
</svg>
