<svg width="48" height="66" viewBox="0 0 48 66" fill="none" xmlns="http://www.w3.org/2000/svg">
<path d="M0.124179 14.1695L3.72536 16.3326V47.8531L21.1104 38.2825V43.2542L6.82983 51.0848L21.1104 59.2881V26.3503L25.8292 28.8362V59.5367L36.0118 53.5706V44L33.0315 40.6441L38.6196 38.0339L37.2536 43.5028V52.8249L42.9658 49.3446L46.9396 52.2034L25.8292 64.6328L23.7181 66L0 51.9548L0.124179 14.1695Z" fill="#15A9F1"/>
<path d="M43.09 18.3955L40.8548 14.9153L23.7182 4.59887L9.06507 13.548L25.8292 23.7401L40.8548 14.9153L43.09 18.3955L36.0119 22.7458L36.136 31.5706L38.4954 34.3051L32.5349 37.4124L34.7701 32.0678L34.6459 23.4915L25.8292 28.8362L21.1104 26.3503L3.84957 16.4068L0.124207 14.1695L23.7182 0L47.0638 13.6723L46.9396 52.2034L42.9659 49.3446L43.09 18.3955Z" fill="#033C87"/>
</svg>
