<svg width="171" height="59" viewBox="0 0 171 59" fill="none" xmlns="http://www.w3.org/2000/svg">
<path d="M65.5008 24.8035L62.8518 34.3488H60.6104L58.8308 27.5522L56.9697 34.3488L54.7418 34.3625L52.1879 24.8035H54.2256L55.8965 32.2155L57.8255 24.8035H59.9447L61.7651 32.1744L63.4496 24.8035H65.5008Z" fill="white"/>
<path d="M71.3615 24.8035V34.3488H69.4596V24.8035H71.3615Z" fill="white"/>
<path d="M84.0675 34.3488H82.1656L77.8593 27.7984V34.3488H75.9574V24.7898H77.8593L82.1656 31.3539V24.7898H84.0675V34.3488Z" fill="white"/>
<path d="M91.9785 24.8035C92.9747 24.8035 93.8487 24.9995 94.6004 25.3915C95.3611 25.7836 95.9453 26.3442 96.3528 27.0736C96.7694 27.7938 96.9777 28.6326 96.9777 29.5898C96.9777 30.5471 96.7694 31.3858 96.3528 32.1061C95.9453 32.8172 95.3611 33.3687 94.6004 33.7608C93.8487 34.1528 92.9747 34.3488 91.9785 34.3488H88.6639V24.8035H91.9785ZM91.9106 32.7214C92.9068 32.7214 93.6766 32.4479 94.22 31.9009C94.7634 31.3539 95.0351 30.5836 95.0351 29.5898C95.0351 28.5961 94.7634 27.8212 94.22 27.265C93.6766 26.6998 92.9068 26.4172 91.9106 26.4172H90.5657V32.7214H91.9106Z" fill="white"/>
<path d="M104.392 34.4445C103.731 34.4445 103.133 34.3306 102.599 34.1026C102.074 33.8747 101.657 33.5465 101.349 33.118C101.041 32.6895 100.883 32.1836 100.874 31.6001H102.911C102.939 31.9921 103.074 32.3021 103.319 32.53C103.573 32.7579 103.917 32.8719 104.351 32.8719C104.795 32.8719 105.144 32.767 105.397 32.5573C105.651 32.3385 105.778 32.0559 105.778 31.7095C105.778 31.4269 105.692 31.1944 105.52 31.012C105.348 30.8297 105.13 30.6884 104.868 30.5881C104.614 30.4787 104.261 30.3602 103.808 30.2326C103.192 30.0502 102.69 29.8724 102.3 29.6992C101.92 29.5169 101.589 29.2479 101.308 28.8924C101.037 28.5277 100.901 28.0445 100.901 27.4428C100.901 26.8776 101.041 26.3853 101.322 25.9659C101.603 25.5465 101.997 25.2274 102.504 25.0086C103.011 24.7807 103.591 24.6667 104.243 24.6667C105.221 24.6667 106.013 24.9083 106.62 25.3915C107.236 25.8656 107.576 26.5311 107.639 27.3881H105.547C105.529 27.0599 105.388 26.791 105.126 26.5813C104.872 26.3625 104.533 26.2531 104.107 26.2531C103.736 26.2531 103.437 26.3488 103.21 26.5403C102.993 26.7317 102.884 27.0098 102.884 27.3744C102.884 27.6297 102.966 27.844 103.129 28.0172C103.301 28.1813 103.509 28.318 103.754 28.4274C104.007 28.5277 104.36 28.6462 104.813 28.783C105.429 28.9653 105.932 29.1477 106.321 29.33C106.711 29.5123 107.046 29.7858 107.326 30.1505C107.607 30.5152 107.748 30.9938 107.748 31.5864C107.748 32.0969 107.616 32.571 107.354 33.0086C107.091 33.4462 106.706 33.7972 106.199 34.0616C105.692 34.3169 105.09 34.4445 104.392 34.4445Z" fill="white"/>
<path d="M114.015 26.3488V28.742H117.208V30.2599H114.015V32.7898H117.615V34.3488H112.113V24.7898H117.615V26.3488H114.015Z" fill="white"/>
<path d="M126.951 34.3488L124.859 30.6291H123.962V34.3488H122.06V24.8035H125.62C126.353 24.8035 126.978 24.9357 127.494 25.2001C128.01 25.4554 128.395 25.8063 128.649 26.2531C128.912 26.6907 129.043 27.183 129.043 27.73C129.043 28.3591 128.862 28.9289 128.5 29.4394C128.137 29.9408 127.598 30.2873 126.883 30.4787L129.152 34.3488H126.951ZM123.962 29.1932H125.552C126.068 29.1932 126.453 29.0702 126.706 28.824C126.96 28.5687 127.087 28.2177 127.087 27.771C127.087 27.3334 126.96 26.9961 126.706 26.7591C126.453 26.5129 126.068 26.3898 125.552 26.3898H123.962V29.1932Z" fill="white"/>
<path d="M141.998 24.8035L138.52 34.3488H136.211L132.733 24.8035H134.771L137.379 32.3932L139.973 24.8035H141.998Z" fill="white"/>
<path d="M147.757 24.8035V34.3488H145.855V24.8035H147.757Z" fill="white"/>
<path d="M151.891 29.5625C151.891 28.6234 152.099 27.7847 152.516 27.0462C152.941 26.2987 153.516 25.7197 154.241 25.3095C154.974 24.8901 155.794 24.6804 156.7 24.6804C157.759 24.6804 158.688 24.9539 159.485 25.5009C160.282 26.0479 160.839 26.8046 161.155 27.771H158.968C158.751 27.3152 158.443 26.9733 158.045 26.7454C157.655 26.5175 157.202 26.4035 156.686 26.4035C156.134 26.4035 155.64 26.5357 155.205 26.8001C154.78 27.0554 154.445 27.42 154.2 27.8941C153.965 28.3682 153.847 28.9243 153.847 29.5625C153.847 30.1915 153.965 30.7477 154.2 31.2308C154.445 31.7049 154.78 32.0742 155.205 32.3385C155.64 32.5938 156.134 32.7214 156.686 32.7214C157.202 32.7214 157.655 32.6075 158.045 32.3796C158.443 32.1425 158.751 31.7961 158.968 31.3403H161.155C160.839 32.3157 160.282 33.077 159.485 33.624C158.697 34.1619 157.768 34.4308 156.7 34.4308C155.794 34.4308 154.974 34.2257 154.241 33.8155C153.516 33.3961 152.941 32.8172 152.516 32.0787C152.099 31.3403 151.891 30.5015 151.891 29.5625Z" fill="white"/>
<path d="M167.399 26.3488V28.742H170.591V30.2599H167.399V32.7898H170.999V34.3488H165.497V24.7898H170.999V26.3488H167.399Z" fill="white"/>
<path d="M0.111038 12.6667L3.33114 14.6004V42.7779L18.8765 34.2223V38.6667L6.1071 45.6667L18.8765 53.0001V23.5556L23.0959 25.7779V53.2223L32.201 47.889V39.3334L29.5361 36.3334L34.5328 34.0001L33.3114 38.889V47.2223L38.4192 44.1112L41.9724 46.6667L23.0959 57.7779L21.2083 59.0001L0 46.4445L0.111038 12.6667Z" fill="white"/>
<path d="M38.5303 16.4444L36.5316 13.3333L21.2083 4.11111L8.10583 12.1111L23.096 21.2222L36.5316 13.3333L38.5303 16.4444L32.2011 20.3333L32.3121 28.2222L34.4219 30.6667L29.092 33.4444L31.0907 28.6667L30.9797 21L23.096 25.7778L18.8765 23.5556L3.44223 14.6667L0.111084 12.6667L21.2083 0L42.0835 12.2222L41.9725 46.6667L38.4192 44.1111L38.5303 16.4444Z" fill="white"/>
</svg>
