<svg width="25" height="25" viewBox="0 0 25 25" fill="none" xmlns="http://www.w3.org/2000/svg">
<path fill-rule="evenodd" clip-rule="evenodd" d="M24.0234 3.75H0.976562C0.437207 3.75 0 4.18721 0 4.72656C0 5.26592 0.437207 5.70313 0.976562 5.70313H24.0234C24.5628 5.70313 25 5.26592 25 4.72656C25 4.18721 24.5628 3.75 24.0234 3.75ZM24.0234 11.5625H0.976562C0.437207 11.5625 0 11.9997 0 12.5391C0 13.0784 0.437207 13.5156 0.976562 13.5156H24.0234C24.5628 13.5156 25 13.0784 25 12.5391C25 11.9997 24.5628 11.5625 24.0234 11.5625ZM0.976562 19.375H24.0234C24.5628 19.375 25 19.8122 25 20.3516C25 20.8909 24.5628 21.3281 24.0234 21.3281H0.976562C0.437207 21.3281 0 20.8909 0 20.3516C0 19.8122 0.437207 19.375 0.976562 19.375Z" fill="#153E73"/>
</svg>
