<svg width="192" height="66" viewBox="0 0 192 66" fill="none" xmlns="http://www.w3.org/2000/svg">
<path d="M73.2525 27.7462L70.29 38.424H67.7833L65.7931 30.821L63.7117 38.424L61.2202 38.4393L58.364 27.7462H60.6429L62.5115 36.0376L64.6688 27.7462H67.0388L69.0746 35.9917L70.9584 27.7462H73.2525Z" fill="#033C87"/>
<path d="M79.8067 27.7462V38.424H77.6797V27.7462H79.8067Z" fill="#033C87"/>
<path d="M94.0164 38.424H91.8894L87.0735 31.0964V38.424H84.9465V27.7309H87.0735L91.8894 35.0738V27.7309H94.0164V38.424Z" fill="#033C87"/>
<path d="M102.864 27.7462C103.978 27.7462 104.955 27.9655 105.796 28.404C106.647 28.8425 107.3 29.4697 107.756 30.2856C108.221 31.0913 108.454 32.0296 108.454 33.1004C108.454 34.1712 108.221 35.1095 107.756 35.9152C107.3 36.7107 106.647 37.3277 105.796 37.7662C104.955 38.2047 103.978 38.424 102.864 38.424H99.1567V27.7462H102.864ZM102.788 36.6036C103.902 36.6036 104.763 36.2976 105.37 35.6857C105.978 35.0738 106.282 34.212 106.282 33.1004C106.282 31.9888 105.978 31.1219 105.37 30.4998C104.763 29.8675 103.902 29.5513 102.788 29.5513H101.284V36.6036H102.788Z" fill="#033C87"/>
<path d="M116.746 38.5311C116.007 38.5311 115.339 38.4036 114.741 38.1486C114.154 37.8937 113.688 37.5265 113.343 37.0472C112.999 36.5679 112.822 36.0019 112.812 35.3492H115.09C115.121 35.7877 115.273 36.1344 115.546 36.3894C115.83 36.6444 116.215 36.7718 116.701 36.7718C117.197 36.7718 117.587 36.6546 117.871 36.42C118.154 36.1752 118.296 35.8591 118.296 35.4715C118.296 35.1554 118.2 34.8953 118.007 34.6914C117.815 34.4874 117.572 34.3293 117.278 34.2171C116.994 34.0948 116.599 33.9622 116.093 33.8194C115.404 33.6154 114.842 33.4166 114.407 33.2228C113.981 33.0188 113.612 32.718 113.298 32.3202C112.994 31.9123 112.842 31.3718 112.842 30.6987C112.842 30.0664 112.999 29.5156 113.313 29.0465C113.627 28.5774 114.067 28.2204 114.635 27.9757C115.202 27.7207 115.85 27.5932 116.579 27.5932C117.673 27.5932 118.559 27.8635 119.238 28.404C119.927 28.9343 120.306 29.6788 120.377 30.6375H118.038C118.017 30.2703 117.86 29.9695 117.567 29.7349C117.283 29.4901 116.903 29.3678 116.427 29.3678C116.012 29.3678 115.678 29.4748 115.425 29.689C115.182 29.9032 115.06 30.2142 115.06 30.6222C115.06 30.9077 115.151 31.1474 115.333 31.3412C115.526 31.5247 115.759 31.6777 116.032 31.8001C116.316 31.9123 116.711 32.0449 117.217 32.1978C117.906 32.4018 118.468 32.6058 118.904 32.8097C119.339 33.0137 119.714 33.3197 120.028 33.7276C120.342 34.1355 120.499 34.671 120.499 35.3339C120.499 35.905 120.352 36.4353 120.058 36.9248C119.765 37.4144 119.334 37.807 118.767 38.1027C118.2 38.3883 117.526 38.5311 116.746 38.5311Z" fill="#033C87"/>
<path d="M127.508 29.4748V32.1519H131.078V33.85H127.508V36.6801H131.534V38.424H125.381V27.7309H131.534V29.4748H127.508Z" fill="#033C87"/>
<path d="M141.975 38.424L139.635 34.263H138.632V38.424H136.505V27.7462H140.486C141.306 27.7462 142.005 27.8941 142.582 28.1898C143.16 28.4754 143.59 28.868 143.874 29.3678C144.167 29.8573 144.314 30.408 144.314 31.0199C144.314 31.7236 144.112 32.361 143.707 32.9321C143.302 33.493 142.699 33.8806 141.899 34.0948L144.436 38.424H141.975ZM138.632 32.6568H140.41C140.987 32.6568 141.418 32.5191 141.701 32.2437C141.985 31.9582 142.127 31.5655 142.127 31.0658C142.127 30.5763 141.985 30.1989 141.701 29.9338C141.418 29.6584 140.987 29.5207 140.41 29.5207H138.632V32.6568Z" fill="#033C87"/>
<path d="M158.802 27.7462L154.913 38.424H152.33L148.441 27.7462H150.72L153.637 36.2364L156.538 27.7462H158.802Z" fill="#033C87"/>
<path d="M165.243 27.7462V38.424H163.116V27.7462H165.243Z" fill="#033C87"/>
<path d="M169.866 33.0698C169.866 32.0194 170.099 31.0811 170.565 30.255C171.041 29.4188 171.684 28.7712 172.494 28.3122C173.315 27.8431 174.231 27.6085 175.244 27.6085C176.429 27.6085 177.467 27.9145 178.359 28.5264C179.25 29.1383 179.873 29.9848 180.227 31.0658H177.781C177.538 30.5559 177.194 30.1734 176.748 29.9185C176.313 29.6635 175.806 29.536 175.229 29.536C174.611 29.536 174.059 29.6839 173.573 29.9797C173.097 30.2652 172.722 30.6732 172.449 31.2035C172.185 31.7338 172.054 32.3559 172.054 33.0698C172.054 33.7735 172.185 34.3956 172.449 34.9361C172.722 35.4664 173.097 35.8795 173.573 36.1752C174.059 36.4608 174.611 36.6036 175.229 36.6036C175.806 36.6036 176.313 36.4761 176.748 36.2211C177.194 35.956 177.538 35.5684 177.781 35.0585H180.227C179.873 36.1497 179.25 37.0013 178.359 37.6132C177.477 38.2149 176.439 38.5158 175.244 38.5158C174.231 38.5158 173.315 38.2863 172.494 37.8274C171.684 37.3583 171.041 36.7107 170.565 35.8846C170.099 35.0585 169.866 34.1202 169.866 33.0698Z" fill="#033C87"/>
<path d="M187.209 29.4748V32.1519H190.779V33.85H187.209V36.6801H191.235V38.424H185.082V27.7309H191.235V29.4748H187.209Z" fill="#033C87"/>
<path d="M0.124179 14.1695L3.72536 16.3326V47.8531L21.1104 38.2825V43.2542L6.82983 51.0848L21.1104 59.2881V26.3503L25.8292 28.8362V59.5367L36.0118 53.5706V44L33.0315 40.6441L38.6196 38.0339L37.2536 43.5028V52.8249L42.9658 49.3446L46.9396 52.2034L25.8292 64.6328L23.7181 66L0 51.9548L0.124179 14.1695Z" fill="#15A9F1"/>
<path d="M43.09 18.3955L40.8548 14.9153L23.7182 4.59887L9.06507 13.548L25.8292 23.7401L40.8548 14.9153L43.09 18.3955L36.0119 22.7458L36.136 31.5706L38.4954 34.3051L32.5349 37.4124L34.7701 32.0678L34.6459 23.4915L25.8292 28.8362L21.1104 26.3503L3.84957 16.4068L0.124207 14.1695L23.7182 0L47.0638 13.6723L46.9396 52.2034L42.9659 49.3446L43.09 18.3955Z" fill="#033C87"/>
</svg>
