<svg width="25" height="19" viewBox="0 0 25 19" fill="none" xmlns="http://www.w3.org/2000/svg">
<path fill-rule="evenodd" clip-rule="evenodd" d="M24.0234 0.75H0.976562C0.437207 0.75 0 1.18721 0 1.72656C0 2.26592 0.437207 2.70313 0.976562 2.70313H24.0234C24.5628 2.70313 25 2.26592 25 1.72656C25 1.18721 24.5628 0.75 24.0234 0.75ZM24.0234 8.5625H0.976562C0.437207 8.5625 0 8.99971 0 9.53906C0 10.0784 0.437207 10.5156 0.976562 10.5156H24.0234C24.5628 10.5156 25 10.0784 25 9.53906C25 8.99971 24.5628 8.5625 24.0234 8.5625ZM0.976562 16.375H24.0234C24.5628 16.375 25 16.8122 25 17.3516C25 17.8909 24.5628 18.3281 24.0234 18.3281H0.976562C0.437207 18.3281 0 17.8909 0 17.3516C0 16.8122 0.437207 16.375 0.976562 16.375Z" fill="#153E73"/>
</svg>
